# xmcd CD database file
#
# Track frame offsets:
#	150
#	7875
#	36415
#	69535
#	81780
#	126310
#	152700
#	176470
#	249000
#	258908
#	267237
#
# Disc length: 3768 seconds
#
# Revision: 0
# Processed by: cddbd v1.5.2PL0 Copyright (c) Steve Scherf et al.
# Submitted via: CDex 1.70beta2
#
DISCID=860eb60b
DTITLE=Zappa Play Zappa - Live At Seattle
DYEAR=2006
DGENRE=Jazz
TTITLE0=Introduction
TTITLE1=Andy
TTITLE2=Call Any Vegetable
TTITLE3=Tell Me You Love Me
TTITLE4=Florentine Pogen
TTITLE5=Cosmik Debris
TTITLE6=I'm The Slime
TTITLE7=Pound For A Brown
TTITLE8=Don't Eat The Yellow Snow
TTITLE9=St Alfonzo's Pancake Breakfast
TTITLE10=Father O'Blivion
EXTD=YEAR: 2006
EXTT0=
EXTT1=
EXTT2=
EXTT3=
EXTT4=
EXTT5=
EXTT6=
EXTT7=
EXTT8=
EXTT9=
EXTT10=
PLAYORDER=
